<svg width="612" height="239" viewBox="0 0 612 239" fill="none" xmlns="http://www.w3.org/2000/svg">
<g clip-path="url(#clip0_1_7)">
<path d="M7.7 238.3H0V118.8C0 109 1.8 99.7 5.3 91.2C8.8 82.7 13.7 75.3 20 69C26.2 62.8 33.7 57.8 42.2 54.3C50.7 50.8 60 49 70 49C80 49 89.3 50.8 97.8 54.3C106.3 57.8 113.8 62.7 120 69C126.2 75.2 131.2 82.7 134.7 91.2C138.2 99.7 139.9 109 139.9 118.8C139.9 128.8 138.1 138.1 134.7 146.5C131.2 154.9 126.3 162.3 120 168.6C113.8 174.8 106.3 179.8 97.8 183.3C89.3 186.8 79.9 188.6 70 188.6C60 188.6 50.7 186.8 42.2 183.3C33.7 179.8 26.3 174.9 20 168.6C15.1 163.7 11 158.1 7.8 151.8V238.3H7.7ZM219.5 188.4C209.5 188.4 200.2 186.6 191.7 183.1C183.2 179.6 175.8 174.7 169.5 168.4C163.3 162.2 158.3 154.8 154.8 146.3C151.3 137.9 149.5 128.6 149.5 118.6C149.5 108.8 151.3 99.5 154.8 91C158.3 82.5 163.2 75.1 169.5 68.8C175.7 62.6 183.2 57.6 191.7 54.1C200.2 50.6 209.5 48.8 219.5 48.8C229.5 48.8 238.8 50.6 247.3 54.1C255.8 57.6 263.2 62.5 269.5 68.8C275.7 75 280.7 82.5 284.2 91C287.7 99.5 289.5 108.8 289.5 118.6C289.5 128.6 287.7 137.9 284.2 146.3C280.7 154.7 275.8 162.1 269.5 168.4C263.3 174.6 255.8 179.6 247.3 183.1C238.8 186.7 229.5 188.4 219.5 188.4ZM427.9 188.4C417.8 188.4 408.4 186.6 400 183.1C391.5 179.6 384.1 174.7 377.9 168.4C371.7 162.2 366.8 154.7 363.3 146.2C359.8 137.8 358 128.5 358 118.8C358 108.9 359.8 99.5 363.4 91.1C367 82.6 372 75.2 378.2 68.9C384.4 62.7 391.9 57.7 400.5 54.2C409 50.8 418.1 49 427.8 48.9C437.5 48.9 446.7 50.7 455.1 54.2C463.7 57.7 471.2 62.6 477.4 68.9L477.9 69.5L384.2 163.4C385.4 164.5 386.4 165.5 387.5 166.3C393.6 171.3 400.4 175.1 407.6 177.5C414.7 179.8 421.5 181 427.8 181.1C434.2 181 441 179.9 448 177.5C455.3 175.1 462.1 171.4 468.1 166.4C474.3 161.3 479.3 155 483.4 147.3C487.3 139.9 489.3 127.9 489.8 119.3C489.9 118.1 490 116.6 490 115C490.4 106.5 491 93.7 494.4 84.6C498 75 502.9 67.5 509.2 62.2C519.5 53.5 533.3 49 550.2 48.9C550.6 48.9 551 48.9 551.4 48.9C568.1 49 581.9 53.5 592.4 62.2C605.2 73 611.7 90.7 611.7 114.8V185H604V115C604 103.7 602.5 94.1 599.7 86.6C596.8 79.1 592.9 73.1 588 68.7C582.9 64.1 577.1 60.9 570.7 59.1C557.8 55.5 543.9 55.5 531 59.1C524.6 60.9 518.8 64.2 513.7 68.7C508.5 73.4 504.5 79.4 502 86.6C498.8 95.6 498.4 104.5 498.1 112.4C498 114.9 497.9 117.3 497.7 119.5C496.8 129.1 495.8 138.4 492.4 146.6C489 154.9 484.2 162.1 477.8 168.5C471.6 174.7 464.2 179.7 455.7 183.2C447.3 186.6 437.9 188.4 427.9 188.4ZM342 185.2H334.3V0H342V185.2ZM311.4 185.2H303.7V0H311.4V185.2ZM69.9 56.3C61 56.3 52.7 57.9 45.2 61C37.7 64.1 31.1 68.5 25.5 74.1C20 79.8 15.6 86.4 12.4 94C9.3 101.6 7.7 109.9 7.7 118.8C7.7 127.7 9.3 136 12.4 143.6C15.5 151.2 19.9 157.8 25.5 163.4C31.1 169 37.7 173.4 45.2 176.5C52.7 179.6 61 181.2 69.9 181.2C78.8 181.2 87.1 179.6 94.6 176.5C102.1 173.4 108.7 169 114.3 163.4C119.9 157.8 124.3 151.1 127.4 143.6C130.5 136 132.1 127.7 132.1 118.8C132.1 109.9 130.5 101.6 127.4 94C124.3 86.4 119.9 79.8 114.3 74.2C108.7 68.6 102.1 64.2 94.6 61.1C87.1 57.9 78.8 56.3 69.9 56.3ZM427.9 56.3C420 56.4 412.4 57.8 405.3 60.5C398 63.3 391.5 67.3 385.9 72.3C380.3 77.3 375.7 83.4 372.2 90.3C368.7 97.2 366.7 104.9 366.2 113.1L366 119.6C366.2 130.3 368.3 139.6 372.3 147.3C374.3 151.2 376.7 154.9 379.3 158.1L467.1 70.1C462.1 66.1 456.5 62.9 450.4 60.6C443.4 57.8 435.8 56.4 427.9 56.3Z" fill="black"/>
</g>
<defs>
<clipPath id="clip0_1_7">
<rect width="611.8" height="238.3" fill="white"/>
</clipPath>
</defs>
</svg>
